<?xml version="1.0" encoding="utf-8"?>
<!-- Generator: Adobe Illustrator 17.0.0, SVG Export Plug-In . SVG Version: 6.00 Build 0)  -->
<!DOCTYPE svg PUBLIC "-//W3C//DTD SVG 1.1//EN" "http://www.w3.org/Graphics/SVG/1.1/DTD/svg11.dtd">
<svg version="1.1" id="Layer_1" xmlns="http://www.w3.org/2000/svg" xmlns:xlink="http://www.w3.org/1999/xlink" x="0px" y="0px"
	 width="118px" height="43px" viewBox="0 0 118 43" enable-background="new 0 0 118 43" xml:space="preserve">
<g>
	<path fill="#FFFFFF" d="M56.725,20.168H45.85c0.707-2.498,2.868-4.102,5.326-4.102C54.005,16.066,55.942,17.483,56.725,20.168
		 M45.701,23.864h16.012c0-0.336,0.037-0.672,0.037-1.01c0-2.649-0.559-4.774-1.899-6.563c-2.085-2.854-5.212-4.485-8.676-4.485
		c-2.756,0-5.4,1.186-7.448,3.334c-1.863,1.973-2.831,4.468-2.831,7.269c0,2.686,1.081,5.406,2.979,7.37
		c2.011,2.075,4.544,3.113,7.486,3.113c4.42,0,7.956-2.483,9.668-6.867h-5.026c-0.967,1.602-2.716,2.494-4.762,2.494
		C48.084,28.519,45.999,26.731,45.701,23.864"/>
	<path fill="#FFFFFF" d="M69.032,22.496c0-3.425,2.5-5.99,5.742-5.99c3.243,0,5.815,2.715,5.815,5.916
		c0,3.314-2.497,5.881-6.039,5.881C71.568,28.303,69.032,25.811,69.032,22.496 M68.846,14.002V5.939h-4.583v26.453h4.583v-1.615
		c1.865,1.444,3.878,2.108,6.226,2.108c2.535,0,4.809-0.812,6.562-2.329c2.42-2.068,3.76-5.007,3.76-8.208
		c0-2.941-1.191-5.77-3.388-7.782c-1.863-1.751-4.287-2.646-6.896-2.646C72.602,11.914,70.632,12.514,68.846,14.002"/>
	<path fill="#FFFFFF" d="M88.595,12.414h4.483v19.979h-4.483V12.414z M88.595,5.939h4.483v4.426h-4.483V5.939z"/>
	<path fill="#FFFFFF" d="M100.785,22.228c0-3.233,2.602-5.722,5.69-5.722c2.938,0,5.615,2.599,5.615,5.945
		c0,3.085-2.64,5.686-5.54,5.686C103.426,28.137,100.785,25.685,100.785,22.228 M112.667,32.393h4.443V12.414h-4.482v2.399
		c-1.355-1.929-3.438-2.893-6.339-2.893c-3.013,0-5.392,0.964-7.4,3.069c-1.859,1.924-2.864,4.526-2.864,7.312
		c0,5.946,4.425,10.528,10.375,10.528c3.087,0,5.095-0.894,6.211-2.904L112.667,32.393z"/>
</g>
<polygon fill="#FFFFFF" points="0.093,41.132 12.374,41.132 25.523,27.982 38.673,41.132 50.955,41.132 31.664,21.849 51.106,2.406 
	38.825,2.406 25.523,15.707 12.221,2.406 -0.06,2.406 19.383,21.849 "/>
</svg>
